<svg width="512" height="512" viewBox="0 0 512 512" fill="none" xmlns="http://www.w3.org/2000/svg">
  <rect width="512" height="512" rx="132" fill="#0F172A"/>
  <rect x="92" y="92" width="328" height="328" rx="84" fill="url(#paint0_linear)" stroke="#5EEAD4" stroke-width="10"/>
  <path d="M164 216V188C164 174.745 174.745 164 188 164H216" stroke="#CCFBF1" stroke-width="16" stroke-linecap="round"/>
  <path d="M348 216V188C348 174.745 337.255 164 324 164H296" stroke="#CCFBF1" stroke-width="16" stroke-linecap="round"/>
  <path d="M164 296V324C164 337.255 174.745 348 188 348H216" stroke="#CCFBF1" stroke-width="16" stroke-linecap="round"/>
  <path d="M348 296V324C348 337.255 337.255 348 324 348H296" stroke="#CCFBF1" stroke-width="16" stroke-linecap="round"/>
  <circle cx="256" cy="220" r="22" fill="#5EEAD4"/>
  <path d="M196 288C212.569 261.018 242.131 244.5 256 244.5C269.869 244.5 299.431 261.018 316 288" stroke="#F8FAFC" stroke-width="18" stroke-linecap="round"/>
  <defs>
    <linearGradient id="paint0_linear" x1="256" y1="92" x2="256" y2="420" gradientUnits="userSpaceOnUse">
      <stop stop-color="#134E4A"/>
      <stop offset="1" stop-color="#0F172A"/>
    </linearGradient>
  </defs>
</svg>
